<svg xmlns="http://www.w3.org/2000/svg"  viewBox="0 0 100 100" width="100px" height="100px"><path fill="#c7ede6" d="M87.215,56.71C88.35,54.555,89,52.105,89,49.5c0-6.621-4.159-12.257-10.001-14.478 C78.999,35.015,79,35.008,79,35c0-11.598-9.402-21-21-21c-9.784,0-17.981,6.701-20.313,15.757C36.211,29.272,34.638,29,33,29 c-7.692,0-14.023,5.793-14.89,13.252C12.906,43.353,9,47.969,9,53.5C9,59.851,14.149,65,20.5,65c0.177,0,0.352-0.012,0.526-0.022 C21.022,65.153,21,65.324,21,65.5C21,76.822,30.178,86,41.5,86c6.437,0,12.175-2.972,15.934-7.614C59.612,80.611,62.64,82,66,82 c4.65,0,8.674-2.65,10.666-6.518C77.718,75.817,78.837,76,80,76c6.075,0,11-4.925,11-11C91,61.689,89.53,58.727,87.215,56.71z"/><path fill="#fdfcef" d="M77.5,60.5V61h3v-0.5c0,0,4.242,0,5.5,0c2.485,0,4.5-2.015,4.5-4.5 c0-2.333-1.782-4.229-4.055-4.455C86.467,51.364,86.5,51.187,86.5,51c0-2.485-2.015-4.5-4.5-4.5c-1.438,0-2.703,0.686-3.527,1.736 C78.333,45.6,76.171,43.5,73.5,43.5c-2.761,0-5,2.239-5,5c0,0.446,0.077,0.87,0.187,1.282C68.045,49.005,67.086,48.5,66,48.5 c-1.781,0-3.234,1.335-3.455,3.055C62.364,51.533,62.187,51.5,62,51.5c-2.485,0-4.5,2.015-4.5,4.5s2.015,4.5,4.5,4.5s9.5,0,9.5,0 H77.5z"/><path fill="#472b29" d="M73.5,43c-3.033,0-5.5,2.467-5.5,5.5c0,0.016,0,0.031,0,0.047C67.398,48.192,66.71,48,66,48 c-1.831,0-3.411,1.261-3.858,3.005C62.095,51.002,62.048,51,62,51c-2.757,0-5,2.243-5,5s2.243,5,5,5h15.5 c0.276,0,0.5-0.224,0.5-0.5S77.776,60,77.5,60H62c-2.206,0-4-1.794-4-4s1.794-4,4-4c0.117,0,0.23,0.017,0.343,0.032l0.141,0.019 c0.021,0.003,0.041,0.004,0.062,0.004c0.246,0,0.462-0.185,0.495-0.437C63.232,50.125,64.504,49,66,49 c0.885,0,1.723,0.401,2.301,1.1c0.098,0.118,0.241,0.182,0.386,0.182c0.078,0,0.156-0.018,0.228-0.056 c0.209-0.107,0.314-0.346,0.254-0.573C69.054,49.218,69,48.852,69,48.5c0-2.481,2.019-4.5,4.5-4.5 c2.381,0,4.347,1.872,4.474,4.263c0.011,0.208,0.15,0.387,0.349,0.45c0.05,0.016,0.101,0.024,0.152,0.024 c0.15,0,0.296-0.069,0.392-0.192C79.638,47.563,80.779,47,82,47c2.206,0,4,1.794,4,4c0,0.117-0.017,0.23-0.032,0.343l-0.019,0.141 c-0.016,0.134,0.022,0.268,0.106,0.373s0.207,0.172,0.34,0.185C88.451,52.247,90,53.949,90,56c0,2.206-1.794,4-4,4h-5.5 c-0.276,0-0.5,0.224-0.5,0.5s0.224,0.5,0.5,0.5H86c2.757,0,5-2.243,5-5c0-2.397-1.689-4.413-4.003-4.877 C86.999,51.082,87,51.041,87,51c0-2.757-2.243-5-5-5c-1.176,0-2.293,0.416-3.183,1.164C78.219,44.76,76.055,43,73.5,43L73.5,43z"/><path fill="#472b29" d="M72,50c-1.403,0-2.609,0.999-2.913,2.341C68.72,52.119,68.301,52,67.875,52 c-1.202,0-2.198,0.897-2.353,2.068C65.319,54.022,65.126,54,64.938,54c-1.529,0-2.811,1.2-2.918,2.732 C62.01,56.87,62.114,56.99,62.251,57c0.006,0,0.012,0,0.018,0c0.13,0,0.24-0.101,0.249-0.232c0.089-1.271,1.151-2.268,2.419-2.268 c0.229,0,0.47,0.042,0.738,0.127c0.022,0.007,0.045,0.01,0.067,0.01c0.055,0,0.11-0.02,0.156-0.054 C65.962,54.537,66,54.455,66,54.375c0-1.034,0.841-1.875,1.875-1.875c0.447,0,0.885,0.168,1.231,0.473 c0.047,0.041,0.106,0.063,0.165,0.063c0.032,0,0.063-0.006,0.093-0.019c0.088-0.035,0.148-0.117,0.155-0.212 C69.623,51.512,70.712,50.5,72,50.5c0.208,0,0.425,0.034,0.682,0.107c0.023,0.007,0.047,0.01,0.07,0.01 c0.109,0,0.207-0.073,0.239-0.182c0.038-0.133-0.039-0.271-0.172-0.309C72.517,50.04,72.256,50,72,50L72,50z M85.883,51.5 c-1.326,0-2.508,0.897-2.874,2.182c-0.038,0.133,0.039,0.271,0.172,0.309C83.205,53.997,83.228,54,83.25,54 c0.109,0,0.209-0.072,0.24-0.182C83.795,52.748,84.779,52,85.883,52c0.117,0,0.23,0.014,0.342,0.029 c0.012,0.002,0.023,0.003,0.035,0.003c0.121,0,0.229-0.092,0.246-0.217c0.019-0.137-0.077-0.263-0.214-0.281 C86.158,51.516,86.022,51.5,85.883,51.5L85.883,51.5z"/><path fill="#68c8d0" d="M65.031,28.669h-28c-4.026,0-7.3,3.275-7.3,7.3v28c0,4.026,3.275,7.3,7.3,7.3h9.19l4.81,6.371 l4.81-6.371h9.19c4.026,0,7.3-3.275,7.3-7.3v-28C72.332,31.943,69.057,28.669,65.031,28.669z"/><path fill="#472b29" d="M51.031,78.34c-0.22,0-0.427-0.103-0.559-0.278l-4.601-6.093h-8.841c-4.411,0-8-3.589-8-8v-28 c0-4.411,3.589-8,8-8h28c4.412,0,8.001,3.589,8.001,8v28c0,4.411-3.589,8-8.001,8H56.19l-4.601,6.093 C51.458,78.237,51.251,78.34,51.031,78.34z M37.031,29.369c-3.639,0-6.6,2.96-6.6,6.6v28c0,3.64,2.961,6.6,6.6,6.6h9.189 c0.22,0,0.427,0.103,0.559,0.278l4.252,5.631l4.252-5.631c0.132-0.175,0.339-0.278,0.559-0.278h9.189c3.64,0,6.601-2.96,6.601-6.6 v-28c0-3.639-2.961-6.6-6.601-6.6H37.031z"/><path fill="#472b29" d="M68.446,47.511c-0.276,0-0.5-0.224-0.5-0.5v-3.706c0-0.276,0.224-0.5,0.5-0.5s0.5,0.224,0.5,0.5 v3.706C68.946,47.287,68.722,47.511,68.446,47.511z"/><path fill="#472b29" d="M68.5,49.114c-0.276,0-0.5,0.224-0.5,0.5v13.574c0,2.067-1.682,3.749-3.749,3.749h-7.464v1.001 h7.464c2.619,0,4.749-2.131,4.749-4.75V49.614C69,49.338,68.776,49.114,68.5,49.114z"/><path fill="#472b29" d="M43.723,66.937h-5.911c-2.067,0-3.749-1.682-3.749-3.749V36.749c0-2.067,1.682-3.749,3.749-3.749 h23.96c0.276,0,0.5-0.224,0.5-0.5s-0.224-0.5-0.5-0.5h-23.96c-2.619,0-4.749,2.131-4.749,4.749v26.44 c0,2.618,2.13,4.749,4.749,4.749h5.911V66.937z"/><path fill="#472b29" d="M68.508,41.06c-0.276,0-0.5-0.224-0.5-0.5v-1.913c0-0.276,0.224-0.5,0.5-0.5s0.5,0.224,0.5,0.5 v1.913C69.008,40.836,68.785,41.06,68.508,41.06z"/><path fill="#472b29" d="M55.831,67.438c0-0.276,0.224-0.5,0.5-0.5h1.913c0.276,0,0.5,0.224,0.5,0.5s-0.224,0.5-0.5,0.5 h-1.913C56.055,67.938,55.831,67.715,55.831,67.438z"/><path fill="#fff" d="M15.5,51h-10C5.224,51,5,50.776,5,50.5S5.224,50,5.5,50h10c0.276,0,0.5,0.224,0.5,0.5 S15.777,51,15.5,51z M18.5,51h-1c-0.276,0-0.5-0.224-0.5-0.5s0.224-0.5,0.5-0.5h1c0.276,0,0.5,0.224,0.5,0.5S18.777,51,18.5,51z M23.491,53H14.5c-0.276,0-0.5-0.224-0.5-0.5s0.224-0.5,0.5-0.5h8.991c0.276,0,0.5,0.224,0.5,0.5S23.767,53,23.491,53z M12.5,53h-1 c-0.276,0-0.5-0.224-0.5-0.5s0.224-0.5,0.5-0.5h1c0.276,0,0.5,0.224,0.5,0.5S12.777,53,12.5,53z M9.5,53h-2 C7.224,53,7,52.776,7,52.5S7.224,52,7.5,52h2c0.276,0,0.5,0.224,0.5,0.5S9.777,53,9.5,53z M15.5,55h-2c-0.276,0-0.5-0.224-0.5-0.5 s0.224-0.5,0.5-0.5h2c0.276,0,0.5,0.224,0.5,0.5S15.776,55,15.5,55z M18.5,46c-0.177,0-0.823,0-1,0c-0.276,0-0.5,0.224-0.5,0.5 s0.224,0.5,0.5,0.5c0.177,0,0.823,0,1,0c0.276,0,0.5-0.224,0.5-0.5S18.776,46,18.5,46z M18.5,48c-0.177,0-4.823,0-5,0 c-0.276,0-0.5,0.224-0.5,0.5s0.224,0.5,0.5,0.5c0.177,0,4.823,0,5,0c0.276,0,0.5-0.224,0.5-0.5S18.776,48,18.5,48z M23.5,50 c-0.177,0-2.823,0-3,0c-0.276,0-0.5,0.224-0.5,0.5s0.224,0.5,0.5,0.5c0.177,0,2.823,0,3,0c0.276,0,0.5-0.224,0.5-0.5 S23.776,50,23.5,50z"/><path fill="#fff" d="M72.5,24h-10c-0.276,0-0.5-0.224-0.5-0.5s0.224-0.5,0.5-0.5h10c0.276,0,0.5,0.224,0.5,0.5 S72.776,24,72.5,24z M76.5,24h-2c-0.276,0-0.5-0.224-0.5-0.5s0.224-0.5,0.5-0.5h2c0.276,0,0.5,0.224,0.5,0.5S76.776,24,76.5,24z M81.5,26h-10c-0.276,0-0.5-0.224-0.5-0.5s0.224-0.5,0.5-0.5h10c0.276,0,0.5,0.224,0.5,0.5S81.777,26,81.5,26z M69.5,26h-1 c-0.276,0-0.5-0.224-0.5-0.5s0.224-0.5,0.5-0.5h1c0.276,0,0.5,0.224,0.5,0.5S69.776,26,69.5,26z M66.47,26H64.5 c-0.276,0-0.5-0.224-0.5-0.5s0.224-0.5,0.5-0.5h1.97c0.276,0,0.5,0.224,0.5,0.5S66.746,26,66.47,26z M75.5,22h-5 c-0.276,0-0.5-0.224-0.5-0.5s0.224-0.5,0.5-0.5h5c0.276,0,0.5,0.224,0.5,0.5S75.777,22,75.5,22z M72.5,28h-2 c-0.276,0-0.5-0.224-0.5-0.5s0.224-0.5,0.5-0.5h2c0.276,0,0.5,0.224,0.5,0.5S72.776,28,72.5,28z"/><path fill="#fdfcef" d="M37.5,73.5c0,0,1.567,0,3.5,0s3.5-1.567,3.5-3.5c0-1.781-1.335-3.234-3.055-3.455 C41.473,66.366,41.5,66.187,41.5,66c0-1.933-1.567-3.5-3.5-3.5c-1.032,0-1.95,0.455-2.59,1.165 c-0.384-1.808-1.987-3.165-3.91-3.165c-2.209,0-4,1.791-4,4c0,0.191,0.03,0.374,0.056,0.558C27.128,64.714,26.592,64.5,26,64.5 c-1.228,0-2.245,0.887-2.455,2.055C23.366,66.527,23.187,66.5,23,66.5c-1.933,0-3.5,1.567-3.5,3.5s1.567,3.5,3.5,3.5s7.5,0,7.5,0 V74h7V73.5z"/><path fill="#472b29" d="M39.25,69C39.112,69,39,68.888,39,68.75c0-1.223,0.995-2.218,2.218-2.218 c0.034,0.009,0.737-0.001,1.244,0.136c0.133,0.036,0.212,0.173,0.176,0.306c-0.036,0.134-0.173,0.213-0.306,0.176 c-0.444-0.12-1.1-0.12-1.113-0.118c-0.948,0-1.719,0.771-1.719,1.718C39.5,68.888,39.388,69,39.25,69z M32.5,73 c-0.276,0-0.5,0.224-0.5,0.5s0.224,0.5,0.5,0.5s0.5-0.224,0.5-0.5S32.776,73,32.5,73z"/><path fill="#472b29" d="M41,74h-3.5c-0.276,0-0.5-0.224-0.5-0.5s0.224-0.5,0.5-0.5H41c1.654,0,3-1.346,3-3 c0-1.496-1.125-2.768-2.618-2.959c-0.134-0.018-0.255-0.088-0.336-0.196s-0.115-0.244-0.094-0.377C40.975,66.314,41,66.16,41,66 c0-1.654-1.346-3-3-3c-0.85,0-1.638,0.355-2.219,1c-0.125,0.139-0.321,0.198-0.5,0.148c-0.182-0.049-0.321-0.195-0.36-0.379 C34.58,62.165,33.141,61,31.5,61c-1.93,0-3.5,1.57-3.5,3.5c0,0.143,0.021,0.28,0.041,0.418c0.029,0.203-0.063,0.438-0.242,0.54 s-0.396,0.118-0.556-0.01C26.878,65.155,26.449,65,26,65c-0.966,0-1.792,0.691-1.963,1.644c-0.048,0.267-0.296,0.446-0.569,0.405 C23.314,67.025,23.16,67,23,67c-1.654,0-3,1.346-3,3s1.346,3,3,3h7.5c0.276,0,0.5,0.224,0.5,0.5S30.776,74,30.5,74H23 c-2.206,0-4-1.794-4-4s1.794-4,4-4c0.059,0,0.116,0.002,0.174,0.006C23.588,64.82,24.711,64,26,64c0.349,0,0.689,0.061,1.011,0.18 C27.176,61.847,29.126,60,31.5,60c1.831,0,3.466,1.127,4.153,2.774C36.333,62.276,37.155,62,38,62c2.206,0,4,1.794,4,4 c0,0.048-0.001,0.095-0.004,0.142C43.739,66.59,45,68.169,45,70C45,72.206,43.206,74,41,74z"/><path fill="#472b29" d="M35.5,73c-0.159,0-0.841,0-1,0c-0.276,0-0.5,0.224-0.5,0.5s0.224,0.5,0.5,0.5c0.159,0,0.841,0,1,0 c0.276,0,0.5-0.224,0.5-0.5S35.776,73,35.5,73z"/><g><path fill="#fff" d="M51.031,62.213c-5.596,0-10.629-3.173-12.824-8.084c-0.45-1.008,0.002-2.191,1.01-2.642 c1.013-0.451,2.192,0.001,2.643,1.01c1.552,3.473,5.152,5.716,9.172,5.716c4.021,0,7.621-2.244,9.172-5.716 c0.45-1.008,1.633-1.461,2.642-1.01s1.461,1.633,1.011,2.642C61.661,59.04,56.628,62.213,51.031,62.213z"/><path fill="#472b29" d="M51.031,62.463c-5.693,0-10.817-3.231-13.053-8.232c-0.506-1.132,0.004-2.466,1.136-2.972 c1.138-0.507,2.469,0.004,2.974,1.136c1.512,3.383,5.021,5.568,8.943,5.568c3.923,0,7.433-2.186,8.943-5.568 c0.245-0.548,0.689-0.969,1.251-1.184c0.561-0.215,1.173-0.198,1.721,0.047c1.133,0.506,1.643,1.839,1.138,2.972 C61.85,59.231,56.726,62.463,51.031,62.463z M40.03,51.563c-0.238,0-0.48,0.049-0.712,0.152c-0.88,0.394-1.276,1.43-0.883,2.311 c2.155,4.821,7.099,7.937,12.596,7.937c5.498,0,10.441-3.115,12.596-7.937c0.394-0.881-0.003-1.918-0.884-2.312 c-0.427-0.19-0.903-0.204-1.34-0.037s-0.781,0.494-0.972,0.921c-1.591,3.563-5.281,5.864-9.4,5.864 c-4.118,0-7.809-2.302-9.4-5.864C41.341,51.949,40.7,51.563,40.03,51.563z"/></g><g><path fill="#fff" d="M57.606,42.803v-2.84h-2.314v-2.314h-2.84v2.314h-2.84v-2.314h-2.84v2.314h-2.314v2.84h2.314v2.84 h-2.314v2.84h2.314v2.314h2.84v-2.314h2.84v2.314h2.84v-2.314h2.314v-2.84h-2.314v-2.84H57.606z M52.452,45.644h-2.84v-2.84h2.84 V45.644z"/><path fill="#472b29" d="M55.292,51.048h-2.841c-0.138,0-0.25-0.112-0.25-0.25v-2.064h-2.34v2.064 c0,0.138-0.112,0.25-0.25,0.25h-2.841c-0.138,0-0.25-0.112-0.25-0.25v-2.064h-2.063c-0.138,0-0.25-0.112-0.25-0.25v-2.84 c0-0.138,0.112-0.25,0.25-0.25h2.063v-2.34h-2.063c-0.138,0-0.25-0.112-0.25-0.25v-2.84c0-0.138,0.112-0.25,0.25-0.25h2.063v-2.064 c0-0.138,0.112-0.25,0.25-0.25h2.841c0.138,0,0.25,0.112,0.25,0.25v2.064h2.34v-2.064c0-0.138,0.112-0.25,0.25-0.25h2.841 c0.138,0,0.25,0.112,0.25,0.25v2.064h2.063c0.138,0,0.25,0.112,0.25,0.25v2.84c0,0.138-0.112,0.25-0.25,0.25h-2.063v2.34h2.063 c0.138,0,0.25,0.112,0.25,0.25v2.84c0,0.138-0.112,0.25-0.25,0.25h-2.063v2.064C55.542,50.936,55.43,51.048,55.292,51.048z M52.701,50.548h2.341v-2.064c0-0.138,0.112-0.25,0.25-0.25h2.063v-2.34h-2.063c-0.138,0-0.25-0.112-0.25-0.25v-2.84 c0-0.138,0.112-0.25,0.25-0.25h2.063v-2.34h-2.063c-0.138,0-0.25-0.112-0.25-0.25v-2.064h-2.341v2.064 c0,0.138-0.112,0.25-0.25,0.25h-2.84c-0.138,0-0.25-0.112-0.25-0.25v-2.064h-2.341v2.064c0,0.138-0.112,0.25-0.25,0.25h-2.063v2.34 h2.063c0.138,0,0.25,0.112,0.25,0.25v2.84c0,0.138-0.112,0.25-0.25,0.25h-2.063v2.34h2.063c0.138,0,0.25,0.112,0.25,0.25v2.064 h2.341v-2.064c0-0.138,0.112-0.25,0.25-0.25h2.84c0.138,0,0.25,0.112,0.25,0.25V50.548z M52.451,45.894h-2.84 c-0.138,0-0.25-0.112-0.25-0.25v-2.84c0-0.138,0.112-0.25,0.25-0.25h2.84c0.138,0,0.25,0.112,0.25,0.25v2.84 C52.701,45.782,52.589,45.894,52.451,45.894z M49.861,45.394h2.34v-2.34h-2.34V45.394z"/></g></svg>